<svg width="340" height="96" viewBox="0 0 340 96" fill="none" xmlns="http://www.w3.org/2000/svg">
<path d="M71.007 49.6887H68.9796C67.9789 49.6873 67.0022 49.3825 66.1784 48.8144C65.3547 48.2463 64.7226 47.4416 64.3657 46.5067L59.8655 34.7698C59.5055 33.8324 58.8685 33.027 58.0392 32.4607C57.2099 31.8945 56.2278 31.5944 55.2237 31.6003C54.2196 31.6062 53.2411 31.9179 52.4186 32.4939C51.5961 33.0699 50.9686 33.8828 50.6196 34.8244L46.3058 46.4567C45.9554 47.4071 45.3214 48.2269 44.4896 48.805C43.6579 49.3831 42.6685 49.6916 41.6556 49.6887H39.6555C38.6487 49.6877 37.6663 49.3794 36.8394 48.8051C36.0125 48.2309 35.3805 47.4179 35.028 46.4749L20.6091 7.84581C20.3303 7.09858 20.2365 6.29496 20.3358 5.50361C20.435 4.71226 20.7243 3.95669 21.179 3.30145C21.6337 2.6462 22.2403 2.11076 22.9469 1.74087C23.6534 1.37097 24.4391 1.17761 25.2366 1.17731H26.8049C27.8184 1.17765 28.8074 1.48967 29.6376 2.07107C30.4678 2.65247 31.0991 3.47511 31.446 4.42746L36.2326 17.5872C36.2781 17.7054 36.3144 17.8281 36.3508 17.9508V17.9917C37.6554 22.6783 44.233 22.8556 45.7876 18.2463L50.4287 4.54565C50.7601 3.56622 51.3898 2.71513 52.2295 2.11184C53.0693 1.50855 54.0768 1.18334 55.1108 1.18186H55.1471C56.1692 1.18181 57.1662 1.49874 58.0007 2.08897C58.8352 2.67921 59.466 3.5137 59.8064 4.47747L64.7112 18.3781C66.3249 22.9602 72.8934 22.7011 74.1435 18.0054C74.1721 17.8899 74.207 17.7761 74.248 17.6645L78.7937 4.50474C79.1306 3.53173 79.7628 2.68814 80.6022 2.09165C81.4415 1.49516 82.446 1.17552 83.4757 1.17731H85.0485C85.8427 1.17711 86.6251 1.36832 87.3297 1.73474C88.0342 2.10117 88.6401 2.632 89.0959 3.28229C89.5517 3.93257 89.8441 4.68314 89.9482 5.47041C90.0524 6.25768 89.9653 7.05845 89.6942 7.8049L75.6572 46.4431C75.3096 47.3964 74.6767 48.2195 73.8446 48.8002C73.0125 49.381 72.0217 49.6912 71.007 49.6887Z" fill="white"/>
<path d="M133.933 50.9342C118.386 50.9342 107.7 41.2883 107.7 25.4785C107.7 9.66864 118.4 0 133.933 0C149.465 0 160.161 9.64591 160.161 25.4557C160.161 41.2656 149.492 50.9342 133.933 50.9342ZM133.933 9.7141C124.7 9.7141 118.318 16.6553 118.318 25.4694C118.318 34.5607 124.682 41.1519 133.933 41.1519C143.369 41.1519 149.547 34.488 149.547 25.4694C149.561 16.5871 143.383 9.7141 133.933 9.7141Z" fill="white"/>
<path d="M205.568 50.9342C190.022 50.9342 179.335 41.2883 179.335 25.4785C179.335 9.66864 190.022 0 205.568 0C221.114 0 231.796 9.64591 231.796 25.4557C231.796 41.2656 221.109 50.9342 205.568 50.9342ZM205.568 9.7141C196.336 9.7141 189.953 16.6553 189.953 25.4694C189.953 34.5607 196.317 41.1519 205.568 41.1519C215.005 41.1519 221.182 34.488 221.182 25.4694C221.182 16.5871 215.005 9.7141 205.568 9.7141Z" fill="white"/>
<path d="M196.504 72.9353C195.272 72.9293 194.063 73.2718 193.018 73.9233C191.972 74.5748 191.132 75.5087 190.594 76.6173C187.835 82.3948 181.021 86.2268 171.771 86.2268C162.679 86.2268 155.752 82.4039 152.947 76.5718C152.406 75.4697 151.564 74.5433 150.518 73.8998C149.472 73.2563 148.266 72.9219 147.038 72.9353H147.015C145.823 72.9394 144.654 73.2652 143.632 73.8783C142.609 74.4914 141.771 75.3691 141.206 76.4187C140.641 77.4684 140.37 78.6511 140.421 79.8422C140.472 81.0332 140.844 82.1883 141.497 83.1857C146.865 91.3407 157.793 96 171.766 96C185.74 96 196.663 91.3679 202.031 83.1857C202.689 82.1879 203.064 81.0307 203.116 79.8369C203.169 78.6432 202.898 77.4574 202.331 76.4054C201.764 75.3535 200.923 74.4746 199.897 73.862C198.871 73.2495 197.699 72.9261 196.504 72.9262V72.9353Z" fill="white"/>
<path d="M308.445 20.4964C308.313 20.4542 308.17 20.452 308.036 20.4902C307.902 20.5284 307.782 20.6053 307.691 20.7112C307.601 20.8172 307.543 20.9475 307.527 21.0859C307.51 21.2243 307.534 21.3646 307.596 21.4893C307.658 21.614 307.756 21.7176 307.877 21.787C307.998 21.8565 308.137 21.8888 308.276 21.8798C308.415 21.8709 308.548 21.8212 308.659 21.7368C308.77 21.6524 308.854 21.5372 308.9 21.4056C308.932 21.3162 308.946 21.2211 308.941 21.1261C308.936 21.0312 308.911 20.9383 308.868 20.8532C308.826 20.7682 308.766 20.6926 308.694 20.6313C308.621 20.57 308.536 20.5241 308.445 20.4964Z" fill="white"/>
<path d="M311.173 10.7824C311.123 10.915 311.115 11.0593 311.147 11.197C311.18 11.3347 311.253 11.4595 311.357 11.5556C311.461 11.6517 311.591 11.7147 311.731 11.7366C311.871 11.7585 312.014 11.7384 312.142 11.6787C312.271 11.619 312.379 11.5225 312.452 11.4015C312.525 11.2804 312.561 11.1403 312.555 10.9989C312.548 10.8575 312.5 10.7212 312.415 10.6073C312.331 10.4935 312.215 10.4073 312.082 10.3596C311.995 10.3271 311.902 10.3122 311.808 10.3159C311.715 10.3196 311.624 10.3417 311.539 10.381C311.454 10.4204 311.379 10.4761 311.316 10.545C311.253 10.6139 311.204 10.6945 311.173 10.7824Z" fill="white"/>
<path d="M310.418 15.0007C310.285 14.9585 310.143 14.9563 310.009 14.9945C309.875 15.0327 309.755 15.1096 309.664 15.2155C309.574 15.3215 309.516 15.4518 309.499 15.5902C309.482 15.7286 309.507 15.8689 309.569 15.9936C309.631 16.1183 309.729 16.2219 309.85 16.2913C309.971 16.3608 310.11 16.3931 310.249 16.3841C310.388 16.3752 310.521 16.3254 310.632 16.2411C310.743 16.1567 310.827 16.0415 310.873 15.9099C310.905 15.8204 310.918 15.7255 310.912 15.6307C310.907 15.536 310.882 15.4434 310.839 15.3584C310.797 15.2735 310.738 15.1981 310.665 15.1366C310.593 15.0751 310.509 15.0289 310.418 15.0007Z" fill="white"/>
<path d="M308.182 23.3329C308.23 23.2001 308.238 23.0558 308.205 22.9184C308.171 22.7811 308.098 22.6567 307.993 22.5612C307.889 22.4658 307.759 22.4034 307.619 22.3822C307.479 22.3609 307.336 22.3817 307.208 22.4419C307.08 22.502 306.973 22.5989 306.9 22.7201C306.827 22.8413 306.792 22.9814 306.799 23.1227C306.806 23.264 306.854 23.4 306.939 23.5135C307.023 23.627 307.139 23.7129 307.273 23.7602C307.36 23.7927 307.454 23.8073 307.547 23.8033C307.64 23.7994 307.732 23.7768 307.817 23.7371C307.901 23.6973 307.977 23.6411 308.04 23.5717C308.103 23.5023 308.151 23.4212 308.182 23.3329Z" fill="white"/>
<path d="M308.673 17.5463C308.605 17.5182 308.531 17.5045 308.458 17.5059C308.384 17.5073 308.312 17.5239 308.245 17.5546C308.178 17.5853 308.118 17.6295 308.069 17.6844C308.02 17.7392 307.982 17.8037 307.959 17.8736L307.75 18.46L308.8 18.8373L309.009 18.2554C309.037 18.187 309.05 18.1136 309.048 18.0398C309.046 17.966 309.029 17.8935 308.997 17.8268C308.965 17.7601 308.92 17.7007 308.864 17.6524C308.809 17.6041 308.743 17.568 308.673 17.5463Z" fill="white"/>
<path d="M314.132 1.17735H312.577C311.55 1.17773 310.548 1.49842 309.711 2.09481C308.875 2.6912 308.245 3.5336 307.909 4.50478L303.363 17.6872C303.327 17.8009 303.291 17.9145 303.259 18.0281C302.009 22.7238 295.445 22.9829 293.827 18.4009L288.899 4.47751C288.559 3.51326 287.928 2.67816 287.094 2.08716C286.259 1.49615 285.262 1.1783 284.24 1.17735H284.203C283.169 1.17815 282.161 1.5031 281.322 2.10648C280.482 2.70987 279.852 3.56134 279.521 4.54115L274.894 18.2463C273.339 22.8556 266.762 22.6784 265.453 17.9918V17.9509C265.416 17.8281 265.38 17.7054 265.334 17.5872L260.534 4.4275C260.188 3.47479 259.557 2.65177 258.726 2.07029C257.896 1.4888 256.907 1.17704 255.893 1.17735H254.325C253.527 1.17765 252.742 1.37101 252.035 1.74091C251.328 2.11081 250.722 2.64624 250.267 3.30149C249.812 3.95673 249.523 4.7123 249.424 5.50365C249.325 6.295 249.418 7.09862 249.697 7.84585L264.121 46.484C264.473 47.427 265.105 48.24 265.932 48.8143C266.759 49.3886 267.741 49.6968 268.748 49.6978H270.757C271.766 49.697 272.75 49.3879 273.578 48.8118C274.406 48.2358 275.038 47.4204 275.389 46.4749L279.703 34.8426C280.051 33.9017 280.677 33.0891 281.498 32.513C282.319 31.9368 283.297 31.6245 284.3 31.6176C285.303 31.6107 286.284 31.9095 287.113 32.4743C287.942 33.039 288.579 33.8429 288.94 34.7789L293.445 46.5159C293.802 47.4507 294.434 48.2554 295.257 48.8235C296.081 49.3916 297.058 49.6965 298.059 49.6978H300.081C301.096 49.6981 302.087 49.3858 302.918 48.8035C303.749 48.2212 304.381 47.3971 304.727 46.4431L318.764 7.80494C319.034 7.05956 319.12 6.26032 319.016 5.47455C318.912 4.68878 318.621 3.93949 318.167 3.28982C317.713 2.64015 317.109 2.10913 316.407 1.74149C315.705 1.37386 314.925 1.18037 314.132 1.17735ZM306.514 28.4514C306.469 28.611 306.392 28.7598 306.287 28.8884C306.182 29.017 306.052 29.1227 305.905 29.1989C305.758 29.2751 305.597 29.3203 305.431 29.3315C305.266 29.3428 305.1 29.3199 304.944 29.2643C304.787 29.2087 304.644 29.1216 304.523 29.0083C304.402 28.8951 304.306 28.7581 304.24 28.606C304.174 28.4539 304.14 28.2898 304.14 28.124C304.14 27.9582 304.174 27.7942 304.241 27.6422C304.307 27.4507 304.422 27.2801 304.576 27.1476C304.729 27.0151 304.914 26.9254 305.113 26.8877L305.15 27.0649C304.975 27.0945 304.811 27.1722 304.678 27.2894C304.545 27.4067 304.447 27.5588 304.395 27.7286C304.339 27.8595 304.311 28.0006 304.311 28.143C304.312 28.2855 304.342 28.4263 304.399 28.5567C304.456 28.6871 304.54 28.8044 304.644 28.9013C304.748 28.9982 304.872 29.0727 305.006 29.12C305.14 29.1674 305.283 29.1867 305.425 29.1767C305.567 29.1668 305.706 29.1278 305.832 29.0621C305.958 28.9964 306.07 28.9055 306.16 28.795C306.25 28.6845 306.316 28.5567 306.354 28.4195C306.452 28.2091 306.463 27.9685 306.383 27.7504C306.304 27.5323 306.142 27.3545 305.932 27.2559L305.595 28.1832L305.436 28.1286L305.836 27.0195L305.918 27.0513C306.052 27.1006 306.175 27.1769 306.279 27.2755C306.382 27.3741 306.464 27.4929 306.52 27.6246C306.576 27.7562 306.604 27.8979 306.603 28.0409C306.602 28.1839 306.571 28.3252 306.514 28.4559V28.4514ZM307.004 26.9831L305.427 26.4149L305.482 26.2558L305.791 26.3694C305.702 26.2904 305.641 26.1854 305.616 26.0695C305.591 25.9536 305.602 25.8327 305.65 25.724L305.8 25.7785C305.771 25.8513 305.758 25.9295 305.762 26.0077C305.766 26.0859 305.787 26.1623 305.823 26.2318C305.86 26.3012 305.91 26.362 305.972 26.4101C306.034 26.4582 306.105 26.4924 306.182 26.5104L307.059 26.824L307.004 26.9831ZM307.773 24.8421L307.473 24.733C307.559 24.8221 307.618 24.9345 307.641 25.0565C307.665 25.1785 307.652 25.3046 307.604 25.4194C307.579 25.5043 307.536 25.5828 307.478 25.6495C307.42 25.7163 307.348 25.7698 307.268 25.8065C307.187 25.8431 307.099 25.862 307.011 25.8619C306.922 25.8618 306.835 25.8426 306.754 25.8058L305.759 25.4558L305.814 25.2967L306.795 25.6467C306.856 25.6774 306.923 25.6942 306.991 25.6957C307.058 25.6973 307.126 25.6836 307.188 25.6557C307.25 25.6278 307.305 25.5863 307.348 25.5344C307.392 25.4825 307.424 25.4215 307.441 25.3558C307.472 25.277 307.485 25.1923 307.479 25.1079C307.474 25.0234 307.45 24.9412 307.409 24.867C307.368 24.7929 307.312 24.7286 307.243 24.6787C307.175 24.6288 307.097 24.5946 307.014 24.5785L306.214 24.2784L306.268 24.1239L307.845 24.6876L307.773 24.8421ZM308.632 24.4239L306.423 23.6375L306.482 23.4784L306.845 23.6102C306.746 23.5007 306.679 23.3659 306.652 23.2207C306.625 23.0754 306.638 22.9255 306.691 22.7875C306.769 22.5693 306.931 22.3911 307.141 22.2922C307.35 22.1933 307.591 22.1818 307.809 22.2602C308.027 22.3385 308.205 22.5004 308.304 22.7101C308.403 22.9198 308.415 23.1602 308.336 23.3784C308.289 23.5179 308.204 23.6418 308.091 23.7363C307.978 23.8309 307.841 23.8927 307.695 23.9148L308.691 24.2694L308.632 24.4239ZM309.027 21.451C308.97 21.6132 308.865 21.7548 308.728 21.8579C308.59 21.961 308.424 22.021 308.253 22.0304C308.081 22.0398 307.91 21.9982 307.762 21.9107C307.613 21.8233 307.494 21.6939 307.419 21.539C307.344 21.384 307.317 21.2104 307.34 21.0398C307.364 20.8693 307.437 20.7095 307.551 20.5806C307.665 20.4517 307.815 20.3594 307.981 20.3153C308.148 20.2712 308.323 20.2773 308.486 20.3328C308.597 20.3695 308.698 20.428 308.786 20.5048C308.873 20.5815 308.944 20.675 308.994 20.7798C309.045 20.8845 309.074 20.9982 309.079 21.1143C309.085 21.2304 309.067 21.3465 309.027 21.4556V21.451ZM309.741 19.36L307.532 18.5645L307.8 17.8145C307.826 17.7172 307.872 17.6263 307.935 17.5477C307.998 17.469 308.076 17.4043 308.165 17.3576C308.255 17.3109 308.353 17.2832 308.453 17.2763C308.553 17.2695 308.654 17.2835 308.749 17.3176C308.844 17.3517 308.93 17.4052 309.003 17.4745C309.077 17.5438 309.134 17.6276 309.173 17.7205C309.212 17.8133 309.232 17.9133 309.23 18.014C309.228 18.1147 309.206 18.2139 309.164 18.3054L308.941 18.8918L309.782 19.1964L309.741 19.36ZM310.382 17.569L308.805 17.0008L308.864 16.8463L309.173 16.9554C309.083 16.8773 309.02 16.7725 308.994 16.6565C308.968 16.5404 308.98 16.419 309.027 16.3099L309.182 16.3644C309.152 16.4372 309.139 16.5155 309.142 16.594C309.146 16.6725 309.167 16.7492 309.203 16.8188C309.24 16.8885 309.291 16.9494 309.353 16.9973C309.415 17.0452 309.487 17.079 309.564 17.0963L310.441 17.4099L310.382 17.569ZM311.005 15.9508C310.946 16.114 310.84 16.2561 310.7 16.3591C310.561 16.4622 310.393 16.5215 310.22 16.5295C310.047 16.5376 309.875 16.4941 309.726 16.4044C309.578 16.3148 309.459 16.1832 309.385 16.0261C309.311 15.869 309.286 15.6936 309.312 15.522C309.338 15.3504 309.414 15.1904 309.531 15.0621C309.648 14.9339 309.8 14.8432 309.969 14.8015C310.137 14.7598 310.314 14.7691 310.477 14.828C310.587 14.866 310.688 14.9257 310.774 15.0034C310.86 15.0811 310.93 15.1752 310.979 15.2803C311.028 15.3854 311.056 15.4993 311.06 15.6152C311.065 15.7312 311.046 15.8468 311.005 15.9553V15.9508ZM312.155 12.6279L311.155 12.2688C311.098 12.2438 311.037 12.2305 310.975 12.2299C310.914 12.2292 310.852 12.2412 310.795 12.265C310.738 12.2888 310.687 12.324 310.644 12.3684C310.601 12.4129 310.567 12.4656 310.546 12.5233C310.45 12.7915 310.546 13.0597 310.955 13.2052L311.837 13.5234L311.777 13.6825L310.777 13.3234C310.723 13.2935 310.663 13.276 310.601 13.272C310.539 13.268 310.477 13.2776 310.42 13.3001C310.362 13.3227 310.31 13.3576 310.267 13.4025C310.225 13.4473 310.192 13.501 310.173 13.5598C310.147 13.6322 310.138 13.7093 310.145 13.7859C310.152 13.8624 310.175 13.9364 310.214 14.003C310.252 14.0695 310.305 14.1269 310.367 14.1712C310.43 14.2156 310.502 14.2458 310.577 14.2598L311.459 14.5734L311.4 14.7325L309.823 14.1643L309.882 14.0052L310.15 14.1052C310.073 14.0243 310.021 13.9233 309.999 13.8139C309.978 13.7045 309.987 13.5911 310.027 13.487C310.06 13.3793 310.126 13.2848 310.216 13.217C310.306 13.1492 310.415 13.1116 310.527 13.1097C310.446 13.0271 310.39 12.9226 310.366 12.8088C310.343 12.695 310.353 12.5769 310.396 12.4688C310.42 12.3873 310.461 12.3121 310.518 12.2485C310.574 12.1849 310.644 12.1344 310.722 12.1006C310.8 12.0668 310.884 12.0505 310.969 12.0529C311.054 12.0552 311.138 12.0762 311.214 12.1142L312.214 12.4733L312.155 12.6279ZM312.873 10.6369L312.514 10.5096C312.611 10.6191 312.677 10.7534 312.704 10.8977C312.73 11.042 312.716 11.1908 312.664 11.3278C312.578 11.5364 312.415 11.7038 312.209 11.7954C312.003 11.887 311.769 11.8957 311.557 11.8196C311.344 11.7436 311.17 11.5886 311.068 11.387C310.967 11.1854 310.948 10.9526 311.014 10.7369C311.061 10.598 311.145 10.4746 311.257 10.38C311.369 10.2855 311.505 10.2234 311.65 10.2005L311.296 10.0732L311.35 9.90958L312.932 10.4778L312.873 10.6369ZM313.327 9.50502C313.291 9.6291 313.217 9.73907 313.117 9.82028C313.016 9.90149 312.893 9.95009 312.764 9.95958L312.732 9.79594C312.837 9.79319 312.938 9.75617 313.02 9.69052C313.102 9.62486 313.161 9.53418 313.187 9.43229C313.264 9.20955 313.232 8.97772 313.037 8.91862C312.582 8.76407 312.509 9.82776 311.941 9.60502C311.877 9.5771 311.82 9.5366 311.772 9.48592C311.724 9.43525 311.687 9.37544 311.663 9.31009C311.638 9.24474 311.628 9.17518 311.631 9.10557C311.634 9.03597 311.652 8.96775 311.682 8.90499C311.717 8.79266 311.783 8.69285 311.874 8.61777C311.964 8.54269 312.074 8.49559 312.191 8.48224L312.223 8.64588C312.135 8.65494 312.052 8.68943 311.983 8.74514C311.914 8.80084 311.863 8.87535 311.837 8.95954C311.764 9.16864 311.805 9.37774 311.996 9.44592C312.418 9.60048 312.514 8.53679 313.091 8.75953C313.158 8.79092 313.218 8.83603 313.266 8.89191C313.314 8.9478 313.35 9.01323 313.372 9.08395C313.393 9.15467 313.399 9.2291 313.39 9.30242C313.381 9.37574 313.357 9.44632 313.318 9.50956L313.327 9.50502ZM313.814 8.14132C313.777 8.26608 313.703 8.37654 313.601 8.45782C313.5 8.5391 313.375 8.58728 313.246 8.59588L313.218 8.43224C313.325 8.43438 313.428 8.39917 313.512 8.33272C313.595 8.26628 313.652 8.17281 313.673 8.06858C313.755 7.84585 313.723 7.61402 313.523 7.55492C313.096 7.40037 312.996 8.46406 312.427 8.24132C312.364 8.21298 312.307 8.17216 312.26 8.1213C312.212 8.07044 312.176 8.01057 312.152 7.94526C312.128 7.87995 312.118 7.81053 312.121 7.74113C312.125 7.67173 312.142 7.60377 312.173 7.54129C312.206 7.42837 312.273 7.32793 312.363 7.25268C312.454 7.17743 312.565 7.13075 312.682 7.11854L312.709 7.27764C312.622 7.28788 312.539 7.32342 312.471 7.37993C312.403 7.43643 312.353 7.51145 312.327 7.59583C312.304 7.63787 312.29 7.68422 312.285 7.732C312.281 7.77978 312.286 7.82798 312.301 7.8736C312.316 7.91921 312.34 7.96127 312.372 7.99716C312.404 8.03305 312.443 8.06201 312.487 8.08222C312.909 8.23223 313.005 7.17309 313.582 7.39583C313.818 7.52311 313.941 7.81857 313.805 8.18223L313.814 8.14132Z" fill="white"/>
<path d="M328.319 8.3822V8.35038C328.297 7.6441 328.416 6.94049 328.67 6.28121C328.925 5.62192 329.309 5.02038 329.8 4.51219C330.291 4.00401 330.879 3.59951 331.529 3.32264C332.179 3.04578 332.878 2.90219 333.585 2.90036C334.292 2.89854 334.991 3.03852 335.643 3.31202C336.294 3.58552 336.885 3.98698 337.378 4.49262C337.872 4.99827 338.259 5.59782 338.517 6.25577C338.774 6.91373 338.898 7.61672 338.879 8.32311V8.35038C338.901 9.05664 338.782 9.76028 338.528 10.4196C338.274 11.079 337.89 11.6807 337.4 12.1891C336.909 12.6974 336.321 13.1022 335.671 13.3793C335.021 13.6564 334.322 13.8003 333.615 13.8025C332.909 13.8046 332.209 13.6649 331.557 13.3917C330.905 13.1185 330.315 12.7173 329.821 12.2119C329.328 11.7065 328.94 11.1071 328.682 10.4493C328.424 9.79149 328.301 9.08858 328.319 8.3822ZM338.27 8.35038V8.32311C338.287 7.69748 338.179 7.0747 337.951 6.49171C337.724 5.90872 337.381 5.37741 336.944 4.9293C336.507 4.4812 335.985 4.12544 335.408 3.88313C334.831 3.64082 334.211 3.5169 333.585 3.51873C332.959 3.52056 332.34 3.64809 331.764 3.89377C331.189 4.13944 330.668 4.49825 330.234 4.94889C329.799 5.39954 329.46 5.93284 329.236 6.51715C329.012 7.10146 328.907 7.72487 328.928 8.35038V8.3822C328.911 9.00782 329.02 9.63053 329.248 10.2134C329.476 10.7962 329.818 11.3273 330.255 11.7752C330.693 12.2231 331.215 12.5786 331.792 12.8206C332.37 13.0626 332.99 13.1862 333.615 13.1841C334.241 13.1819 334.86 13.0541 335.436 12.8082C336.011 12.5622 336.531 12.2032 336.966 11.7524C337.4 11.3015 337.739 10.7681 337.963 10.1837C338.187 9.5993 338.291 8.97587 338.27 8.35038ZM331.537 5.55934H333.965C335.147 5.55934 336.024 6.13664 336.024 7.25942C336.04 7.63442 335.924 8.00315 335.698 8.30251C335.472 8.60187 335.148 8.81323 334.783 8.90041L336.215 10.9323H334.974L333.688 9.09133H332.578V10.9414H331.551L331.537 5.55934ZM333.869 8.2322C334.569 8.2322 334.965 7.86854 334.965 7.35034C334.965 6.83213 334.569 6.47302 333.869 6.47302H332.578V8.2322H333.869Z" fill="white"/>
</svg>
